<svg width="27" height="21" viewBox="0 0 27 21" fill="none" xmlns="http://www.w3.org/2000/svg">
<path d="M21.6643 12.9332C20.6528 13.5481 19.491 13.8714 18.3073 13.8676C17.3156 13.8598 16.3351 13.6569 15.4216 13.2707C14.7177 14.2645 14.3409 15.4531 14.3438 16.671V19.7813C14.344 19.8969 14.3205 20.0114 14.2746 20.1176C14.2288 20.2238 14.1616 20.3194 14.0772 20.3985C13.9928 20.4777 13.8931 20.5386 13.7842 20.5776C13.6753 20.6165 13.5595 20.6327 13.4441 20.625C13.2272 20.6061 13.0255 20.506 12.8794 20.3446C12.7333 20.1832 12.6536 19.9726 12.6563 19.7549V18.4429L8.58306 14.3697C7.97756 14.5955 7.33719 14.7137 6.69095 14.7188C5.80129 14.721 4.92829 14.4775 4.16813 14.0153C1.86997 12.6189 0.632821 9.40524 0.872235 5.41536C0.88429 5.20894 0.971721 5.01413 1.11793 4.86792C1.26414 4.72172 1.45894 4.63428 1.66536 4.62223C5.65524 4.38703 8.86888 5.61996 10.2611 7.91813C10.808 8.81892 11.0468 9.87332 10.9413 10.9219C10.9348 11.0031 10.9048 11.0807 10.8551 11.1453C10.8054 11.2099 10.738 11.2587 10.6611 11.2858C10.5843 11.3129 10.5012 11.3172 10.422 11.2981C10.3427 11.279 10.2707 11.2373 10.2147 11.1782L8.18966 9.05825C8.03014 8.90669 7.81772 8.82345 7.5977 8.82627C7.37769 8.82908 7.16747 8.91774 7.01188 9.07333C6.8563 9.22891 6.76764 9.43913 6.76482 9.65915C6.76201 9.87916 6.84525 10.0916 6.9968 10.2511L12.6795 16.0782C12.6858 15.996 12.6932 15.9137 12.7016 15.8325C12.8861 14.2681 13.5764 12.8068 14.6675 11.6707L20.0032 6.03235C20.1615 5.87417 20.2505 5.65957 20.2506 5.43577C20.2507 5.21197 20.1619 4.99729 20.0037 4.83897C19.8456 4.68065 19.631 4.59165 19.4072 4.59155C19.1834 4.59145 18.9687 4.68026 18.8104 4.83844L13.6424 10.3038C13.5907 10.3586 13.5252 10.3986 13.4528 10.4195C13.3804 10.4404 13.3037 10.4416 13.2308 10.4229C13.1578 10.4041 13.0911 10.3662 13.0378 10.313C12.9844 10.2598 12.9463 10.1932 12.9273 10.1203C12.4274 8.27672 12.6478 6.44157 13.6023 4.86586C15.486 1.75664 19.8693 0.0923476 25.3283 0.412973C25.5347 0.425027 25.7296 0.512458 25.8758 0.658666C26.022 0.804874 26.1094 0.99968 26.1215 1.2061C26.4379 6.66621 24.7736 11.0495 21.6643 12.9332Z" fill="#5E8E3E"/>
</svg>
